<?xml version="1.0" encoding="UTF-8" standalone="no"?>
<!DOCTYPE svg PUBLIC "-//W3C//DTD SVG 1.1//EN" "http://www.w3.org/Graphics/SVG/1.1/DTD/svg11.dtd">
<svg width="100px" height="50px" viewBox="0 0 981 429" version="1.1" xmlns="http://www.w3.org/2000/svg" xmlns:xlink="http://www.w3.org/1999/xlink" xml:space="preserve" xmlns:serif="http://www.serif.com/" style="fill-rule:evenodd;clip-rule:evenodd;stroke-linejoin:round;stroke-miterlimit:2;">
    <g transform="matrix(0.602699,0,0,0.395763,-340.153,-192.71)">
        <path d="M2189.7,584.07C2189.7,532.236 2162.11,490.216 2128.07,490.216L627.35,490.216C593.313,490.216 565.721,532.236 565.721,584.07L565.721,1474.9C565.721,1526.73 593.313,1568.75 627.35,1568.75L2128.07,1568.75C2162.11,1568.75 2189.7,1526.73 2189.7,1474.9L2189.7,584.07Z" style="fill:rgb(206,3,0);"/>
    </g>
    <g transform="matrix(9.3351,0,0,9.12919,-7896.3,-7143.3)">
        <text x="849.855px" y="808.713px" style="font-family:'HiraMaruProN-W4', 'Hiragino Maru Gothic ProN', sans-serif;font-size:24px;fill:white;">連携解除</text>
    </g>
    <g transform="matrix(1.96623,0,0,0.608782,-3261.65,-292.842)">
        <path d="M1680.3,1064.1C1680.3,1071.69 1682.2,1077.84 1684.55,1077.84L2078.03,1077.84C2078.03,1077.84 2078.03,1118.12 2078.03,1118.12C2078.03,1122.89 2078.79,1127.31 2080.05,1129.82C2081.3,1132.32 2082.87,1132.55 2084.19,1130.42L2135.66,1047.3C2137.1,1044.97 2138.01,1040.21 2138.01,1035C2138.01,1029.8 2137.1,1025.04 2135.66,1022.71L2084.19,939.592C2082.87,937.462 2081.3,937.69 2080.05,940.194C2078.79,942.698 2078.03,947.121 2078.03,951.884L2078.03,992.169C2078.03,992.169 1684.55,992.169 1684.55,992.169C1682.2,992.169 1680.3,998.322 1680.3,1005.91L1680.3,1064.1Z" style="fill:white;"/>
    </g>
    <g transform="matrix(0.961033,0,0,0.961033,25.1241,13.5086)">
        <g transform="matrix(1.12335,-0.0590876,0.0590876,1.12335,-110.721,1.71328)">
            <g transform="matrix(0.769025,-0.639219,0.473496,0.569649,16.4254,613.325)">
                <path d="M753.546,220.083C753.546,212.986 749.284,207.233 744.027,207.233L713.467,207.233C708.21,207.233 703.949,212.986 703.949,220.083L703.949,449.757C703.949,456.854 708.21,462.608 713.467,462.608L744.027,462.608C749.284,462.608 753.546,456.854 753.546,449.757L753.546,220.083Z" style="fill:rgb(206,3,0);"/>
            </g>
            <g transform="matrix(0.665403,0.746484,-0.552952,0.492892,435.718,-370.794)">
                <path d="M753.546,220.083C753.546,212.986 749.284,207.233 744.027,207.233L713.467,207.233C708.21,207.233 703.949,212.986 703.949,220.083L703.949,449.757C703.949,456.854 708.21,462.608 713.467,462.608L744.027,462.608C749.284,462.608 753.546,456.854 753.546,449.757L753.546,220.083Z" style="fill:rgb(206,3,0);"/>
            </g>
        </g>
        <g transform="matrix(0.99862,-0.0525267,0.0525267,0.99862,-16.7537,39.0969)">
            <g transform="matrix(0.769025,-0.639219,0.470099,0.565562,17.356,614.445)">
                <path d="M747.101,220.083C747.101,217.775 745.725,215.904 744.027,215.904L713.467,215.904C711.77,215.904 710.393,217.775 710.393,220.083L710.393,449.757C710.393,452.066 711.77,453.937 713.467,453.937L744.027,453.937C745.725,453.937 747.101,452.066 747.101,449.757L747.101,220.083Z" style="fill:white;"/>
            </g>
            <g transform="matrix(0.665403,0.746484,-0.552952,0.492892,435.718,-370.794)">
                <path d="M747.101,220.083C747.101,217.792 745.725,215.934 744.027,215.934L713.467,215.934C711.77,215.934 710.393,217.792 710.393,220.083L710.393,449.757C710.393,452.049 711.77,453.907 713.467,453.907L744.027,453.907C745.725,453.907 747.101,452.049 747.101,449.757L747.101,220.083Z" style="fill:white;"/>
            </g>
        </g>
    </g>
</svg>
