<?xml version="1.0" encoding="UTF-8" standalone="no"?>
<!DOCTYPE svg PUBLIC "-//W3C//DTD SVG 1.1//EN" "http://www.w3.org/Graphics/SVG/1.1/DTD/svg11.dtd">
<svg width="100px" height="50px" viewBox="0 0 981 429" version="1.1" xmlns="http://www.w3.org/2000/svg" xmlns:xlink="http://www.w3.org/1999/xlink" xml:space="preserve" xmlns:serif="http://www.serif.com/" style="fill-rule:evenodd;clip-rule:evenodd;stroke-linejoin:round;stroke-miterlimit:2;">
    <g transform="matrix(0.602699,0,0,0.395763,-340.153,-192.71)">
        <path d="M2189.7,584.07C2189.7,532.236 2162.11,490.216 2128.07,490.216L627.35,490.216C593.313,490.216 565.721,532.236 565.721,584.07L565.721,1474.9C565.721,1526.73 593.313,1568.75 627.35,1568.75L2128.07,1568.75C2162.11,1568.75 2189.7,1526.73 2189.7,1474.9L2189.7,584.07Z" style="fill:rgb(27,164,255);"/>
    </g>
    <g transform="matrix(7.5649,0,0,7.39804,-6303.08,-5739.76)">
        <text x="837.855px" y="808.713px" style="font-family:'HiraMaruProN-W4', 'Hiragino Maru Gothic ProN', sans-serif;font-size:24px;fill:white;">認証画面へ</text>
    </g>
    <g transform="matrix(1.96623,0,0,0.608782,-3261.65,-292.842)">
        <path d="M1680.3,1064.1C1680.3,1071.69 1682.2,1077.84 1684.55,1077.84L2078.03,1077.84C2078.03,1077.84 2078.03,1118.12 2078.03,1118.12C2078.03,1122.89 2078.79,1127.31 2080.05,1129.82C2081.3,1132.32 2082.87,1132.55 2084.19,1130.42L2135.66,1047.3C2137.1,1044.97 2138.01,1040.21 2138.01,1035C2138.01,1029.8 2137.1,1025.04 2135.66,1022.71L2084.19,939.592C2082.87,937.462 2081.3,937.69 2080.05,940.194C2078.79,942.698 2078.03,947.121 2078.03,951.884L2078.03,992.169C2078.03,992.169 1684.55,992.169 1684.55,992.169C1682.2,992.169 1680.3,998.322 1680.3,1005.91L1680.3,1064.1Z" style="fill:white;"/>
    </g>
</svg>
